<svg data-v-423bf9ae="" xmlns="http://www.w3.org/2000/svg" viewBox="0 0 528 90" class="iconLeft"><!----><!----><!----><g data-v-423bf9ae="" id="252cae02-06bc-481a-a29a-be3078f85937" fill="#000000" transform="matrix(4.676539388682123,0,0,4.676539388682123,108.11900691560339,-2.6305548366451674)"><path d="M7.15 14Q6.96 14 6.89 13.80L6.89 13.80L6.50 12.50Q6.48 12.43 6.41 12.43L6.41 12.43L2.98 12.43Q2.91 12.43 2.90 12.50L2.90 12.50L2.51 13.80Q2.44 14 2.24 14L2.24 14L0.62 14Q0.49 14 0.43 13.92Q0.38 13.85 0.42 13.73L0.42 13.73L3.40 4.40Q3.47 4.20 3.67 4.20L3.67 4.20L5.73 4.20Q5.92 4.20 5.99 4.40L5.99 4.40L8.97 13.73Q8.99 13.76 8.99 13.82L8.99 13.82Q8.99 13.90 8.93 13.95Q8.88 14 8.78 14L8.78 14L7.15 14ZM3.39 10.81Q3.37 10.91 3.46 10.91L3.46 10.91L5.94 10.91Q6.02 10.91 6.01 10.81L6.01 10.81L4.75 6.54Q4.73 6.48 4.70 6.48Q4.66 6.48 4.63 6.54L4.63 6.54L3.39 10.81ZM11.44 14Q11.24 14 11.17 13.80L11.17 13.80L9.00 7.07Q8.99 7.04 8.99 6.99L8.99 6.99Q8.99 6.90 9.04 6.85Q9.10 6.80 9.20 6.80L9.20 6.80L10.85 6.80Q11.05 6.80 11.12 7.01L11.12 7.01L12.24 11.21Q12.25 11.27 12.29 11.27Q12.33 11.27 12.35 11.21L12.35 11.21L13.47 7.01Q13.54 6.80 13.73 6.80L13.73 6.80L15.39 6.82Q15.51 6.82 15.57 6.89Q15.62 6.97 15.58 7.08L15.58 7.08L13.43 13.80Q13.36 14 13.15 14L13.15 14L11.44 14ZM17.75 6.12Q17.22 6.12 16.88 5.79Q16.55 5.46 16.55 4.94L16.55 4.94Q16.55 4.42 16.88 4.10Q17.22 3.77 17.75 3.77L17.75 3.77Q18.30 3.77 18.63 4.09Q18.96 4.41 18.96 4.94L18.96 4.94Q18.96 5.47 18.63 5.80Q18.30 6.12 17.75 6.12L17.75 6.12ZM17.01 14Q16.77 14 16.77 13.76L16.77 13.76L16.77 7.04Q16.77 6.80 17.01 6.80L17.01 6.80L18.51 6.80Q18.75 6.80 18.75 7.04L18.75 7.04L18.75 13.76Q18.75 14 18.51 14L18.51 14L17.01 14ZM22.36 14Q22.16 14 22.09 13.80L22.09 13.80L19.92 7.07Q19.91 7.04 19.91 6.99L19.91 6.99Q19.91 6.90 19.96 6.85Q20.02 6.80 20.12 6.80L20.12 6.80L21.77 6.80Q21.97 6.80 22.04 7.01L22.04 7.01L23.16 11.21Q23.17 11.27 23.21 11.27Q23.25 11.27 23.27 11.21L23.27 11.21L24.39 7.01Q24.46 6.80 24.65 6.80L24.65 6.80L26.31 6.82Q26.43 6.82 26.49 6.89Q26.54 6.97 26.50 7.08L26.50 7.08L24.35 13.80Q24.28 14 24.07 14L24.07 14L22.36 14ZM33.82 14.11Q32.73 14.11 31.91 13.75Q31.08 13.38 30.63 12.73Q30.18 12.07 30.18 11.19L30.18 11.19L30.18 10.95Q30.18 10.71 30.42 10.71L30.42 10.71L31.89 10.71Q32.13 10.71 32.13 10.89L32.13 10.89L32.13 11.09Q32.13 11.65 32.64 12.03Q33.15 12.42 33.98 12.42L33.98 12.42Q34.72 12.42 35.08 12.10Q35.43 11.79 35.43 11.33L35.43 11.33Q35.43 10.99 35.21 10.76Q34.99 10.53 34.61 10.35Q34.23 10.18 33.39 9.87L33.39 9.87Q32.44 9.55 31.79 9.21Q31.15 8.88 30.70 8.29Q30.25 7.71 30.25 6.86L30.25 6.86Q30.25 6.02 30.69 5.39Q31.12 4.76 31.90 4.42Q32.68 4.09 33.67 4.09L33.67 4.09Q34.73 4.09 35.57 4.47Q36.41 4.84 36.88 5.52Q37.35 6.20 37.35 7.10L37.35 7.10L37.35 7.24Q37.35 7.48 37.11 7.48L37.11 7.48L35.64 7.48Q35.41 7.48 35.41 7.34L35.41 7.34L35.41 7.20Q35.41 6.61 34.92 6.19Q34.44 5.78 33.60 5.78L33.60 5.78Q32.93 5.78 32.56 6.06Q32.20 6.34 32.20 6.83L32.20 6.83Q32.20 7.18 32.41 7.42Q32.62 7.66 33.05 7.85Q33.47 8.05 34.37 8.36L34.37 8.36Q35.35 8.72 35.92 9.00Q36.50 9.27 36.95 9.83Q37.41 10.39 37.41 11.27L37.41 11.27Q37.41 12.12 36.97 12.77Q36.53 13.41 35.72 13.76Q34.92 14.11 33.82 14.11L33.82 14.11ZM42.84 4.19Q43.76 4.19 44.46 4.56Q45.16 4.94 45.55 5.63Q45.93 6.33 45.93 7.22L45.93 7.22Q45.93 8.11 45.54 8.78Q45.14 9.45 44.42 9.82Q43.69 10.19 42.76 10.19L42.76 10.19L40.78 10.19Q40.70 10.19 40.70 10.28L40.70 10.28L40.70 13.76Q40.70 14 40.46 14L40.46 14L38.96 14Q38.72 14 38.72 13.76L38.72 13.76L38.72 4.42Q38.72 4.19 38.96 4.19L38.96 4.19L42.84 4.19ZM42.55 8.61Q43.19 8.61 43.58 8.24Q43.97 7.87 43.97 7.27L43.97 7.27Q43.97 6.65 43.58 6.27Q43.19 5.89 42.55 5.89L42.55 5.89L40.78 5.89Q40.70 5.89 40.70 5.98L40.70 5.98L40.70 8.53Q40.70 8.61 40.78 8.61L40.78 8.61L42.55 8.61ZM55.16 4.44Q55.16 4.20 55.40 4.20L55.40 4.20L56.90 4.20Q57.13 4.20 57.13 4.44L57.13 4.44L57.13 13.76Q57.13 14 56.90 14L56.90 14L55.40 14Q55.16 14 55.16 13.76L55.16 13.76L55.16 9.98Q55.16 9.90 55.08 9.90L55.08 9.90L52.01 9.90Q51.93 9.90 51.93 9.98L51.93 9.98L51.93 13.76Q51.93 14 51.69 14L51.69 14L50.19 14Q49.95 14 49.95 13.76L49.95 13.76L49.95 4.44Q49.95 4.20 50.19 4.20L50.19 4.20L51.69 4.20Q51.93 4.20 51.93 4.44L51.93 4.44L51.93 8.12Q51.93 8.20 52.01 8.20L52.01 8.20L55.08 8.20Q55.16 8.20 55.16 8.12L55.16 8.12L55.16 4.44ZM62.09 12.45Q63.01 12.40 63.50 11.80L63.50 11.80Q63.59 11.70 63.69 11.70L63.69 11.70Q63.77 11.70 63.84 11.77L63.84 11.77L64.64 12.54Q64.72 12.63 64.72 12.71L64.72 12.71Q64.72 12.81 64.67 12.88L64.67 12.88Q64.20 13.45 63.48 13.78Q62.76 14.11 61.91 14.11L61.91 14.11Q60.62 14.11 59.77 13.45Q58.93 12.80 58.63 11.65L58.63 11.65Q58.46 11.03 58.46 10.35L58.46 10.35Q58.46 9.53 58.62 8.97L58.62 8.97Q58.90 7.94 59.74 7.31Q60.59 6.68 61.75 6.68L61.75 6.68Q63.13 6.68 63.93 7.49Q64.74 8.30 64.97 9.77L64.97 9.77Q65.03 10.23 65.06 10.79L65.06 10.79Q65.06 11.03 64.82 11.03L64.82 11.03L60.52 11.03Q60.44 11.03 60.44 11.12L60.44 11.12Q60.48 11.41 60.54 11.55L60.54 11.55Q60.68 11.98 61.09 12.21Q61.50 12.45 62.09 12.45L62.09 12.45ZM61.73 8.39Q61.28 8.39 60.98 8.60Q60.68 8.82 60.56 9.21L60.56 9.21Q60.49 9.48 60.48 9.56L60.48 9.56Q60.47 9.65 60.55 9.65L60.55 9.65L62.93 9.65Q63 9.65 63 9.59L63 9.59Q63 9.44 62.94 9.27L62.94 9.27Q62.82 8.86 62.51 8.62Q62.20 8.39 61.73 8.39L61.73 8.39ZM66.54 14Q66.30 14 66.30 13.76L66.30 13.76L66.30 4.44Q66.30 4.20 66.54 4.20L66.54 4.20L68.04 4.20Q68.28 4.20 68.28 4.44L68.28 4.44L68.28 13.76Q68.28 14 68.04 14L68.04 14L66.54 14ZM76.20 8.75Q76.44 9.42 76.44 10.43L76.44 10.43Q76.44 11.47 76.17 12.17L76.17 12.17Q75.87 13.06 75.16 13.59Q74.45 14.13 73.50 14.13L73.50 14.13Q72.46 14.13 71.90 13.44L71.90 13.44Q71.88 13.40 71.84 13.41Q71.81 13.43 71.81 13.48L71.81 13.48L71.81 16.37Q71.81 16.60 71.57 16.60L71.57 16.60L70.07 16.60Q69.83 16.60 69.83 16.37L69.83 16.37L69.83 7.04Q69.83 6.80 70.07 6.80L70.07 6.80L71.57 6.80Q71.81 6.80 71.81 7.04L71.81 7.04L71.81 7.42Q71.81 7.48 71.84 7.48Q71.88 7.49 71.90 7.45L71.90 7.45Q72.48 6.69 73.50 6.69L73.50 6.69Q74.45 6.69 75.19 7.26Q75.92 7.83 76.20 8.75L76.20 8.75ZM74.03 11.86Q74.37 11.30 74.37 10.39L74.37 10.39Q74.37 9.56 74.07 9.02L74.07 9.02Q73.74 8.41 73.05 8.41L73.05 8.41Q72.44 8.41 72.10 9.02L72.10 9.02Q71.82 9.53 71.82 10.40L71.82 10.40Q71.82 11.31 72.11 11.84L72.11 11.84Q72.46 12.39 73.05 12.39L73.05 12.39Q73.70 12.39 74.03 11.86L74.03 11.86ZM81.06 12.45Q81.98 12.40 82.47 11.80L82.47 11.80Q82.56 11.70 82.66 11.70L82.66 11.70Q82.74 11.70 82.81 11.77L82.81 11.77L83.61 12.54Q83.69 12.63 83.69 12.71L83.69 12.71Q83.69 12.81 83.64 12.88L83.64 12.88Q83.17 13.45 82.45 13.78Q81.73 14.11 80.88 14.11L80.88 14.11Q79.59 14.11 78.74 13.45Q77.90 12.80 77.60 11.65L77.60 11.65Q77.43 11.03 77.43 10.35L77.43 10.35Q77.43 9.53 77.59 8.97L77.59 8.97Q77.87 7.94 78.72 7.31Q79.56 6.68 80.72 6.68L80.72 6.68Q82.10 6.68 82.90 7.49Q83.71 8.30 83.94 9.77L83.94 9.77Q84.00 10.23 84.03 10.79L84.03 10.79Q84.03 11.03 83.79 11.03L83.79 11.03L79.49 11.03Q79.41 11.03 79.41 11.12L79.41 11.12Q79.45 11.41 79.51 11.55L79.51 11.55Q79.65 11.98 80.06 12.21Q80.47 12.45 81.06 12.45L81.06 12.45ZM80.70 8.39Q80.25 8.39 79.95 8.60Q79.65 8.82 79.53 9.21L79.53 9.21Q79.46 9.48 79.45 9.56L79.45 9.56Q79.44 9.65 79.52 9.65L79.52 9.65L81.90 9.65Q81.97 9.65 81.97 9.59L81.97 9.59Q81.97 9.44 81.91 9.27L81.91 9.27Q81.79 8.86 81.48 8.62Q81.17 8.39 80.70 8.39L80.70 8.39ZM88.83 6.71Q89.28 6.71 89.57 6.87L89.57 6.87Q89.74 6.96 89.70 7.17L89.70 7.17L89.43 8.64Q89.42 8.76 89.36 8.79Q89.29 8.82 89.15 8.79L89.15 8.79Q88.93 8.74 88.75 8.74L88.75 8.74Q88.65 8.74 88.42 8.76L88.42 8.76Q87.92 8.81 87.57 9.13Q87.22 9.46 87.22 10.01L87.22 10.01L87.22 13.76Q87.22 14 86.98 14L86.98 14L85.48 14Q85.25 14 85.25 13.76L85.25 13.76L85.25 7.04Q85.25 6.80 85.48 6.80L85.48 6.80L86.98 6.80Q87.22 6.80 87.22 7.04L87.22 7.04L87.22 7.48Q87.22 7.53 87.25 7.55Q87.28 7.56 87.32 7.52L87.32 7.52Q87.88 6.71 88.83 6.71L88.83 6.71Z"></path></g><defs data-v-423bf9ae=""><linearGradient data-v-423bf9ae="" gradientTransform="rotate(25)" id="85962b98-86b6-422f-9fa8-6eaef9d70f55" x1="0%" y1="0%" x2="100%" y2="0%"><stop data-v-423bf9ae="" offset="0%" style="stop-color: rgb(78, 26, 112); stop-opacity: 1;"></stop><stop data-v-423bf9ae="" offset="100%" style="stop-color: rgb(43, 76, 242); stop-opacity: 1;"></stop></linearGradient></defs><g data-v-423bf9ae="" id="7a87c0f8-5264-41f2-b4c7-64c5b314f9f4" transform="matrix(2.8125,0,0,2.8125,0,0)" stroke="none" fill="url(#85962b98-86b6-422f-9fa8-6eaef9d70f55)"><circle cx="16" cy="16.021" r="8.066"></circle><path d="M32 0H0v32h32V0zM16 26.086c-5.551 0-10.066-4.516-10.066-10.065 0-5.55 4.516-10.066 10.066-10.066 5.55 0 10.065 4.516 10.065 10.066.001 5.55-4.515 10.065-10.065 10.065z"></path></g><!----></svg>